<?xml version="1.0" encoding="utf-8"?>
<!-- Generator: Adobe Illustrator 20.0.0, SVG Export Plug-In . SVG Version: 6.00 Build 0)  -->
<svg version="1.1" xmlns="http://www.w3.org/2000/svg" xmlns:xlink="http://www.w3.org/1999/xlink" x="0px" y="0px"
	 viewBox="0 0 1000 979.9" style="enable-background:new 0 0 1000 979.9;" xml:space="preserve">
<style type="text/css">
	.st0{fill:#1ED760;}
	.st1{fill:#FFFFFF;}
</style>
<g id="fondo">
	<rect class="st0" width="1000" height="979.9"/>
</g>
<g id="i">
	<path class="st1" d="M439.4,442c0-8.4,5.4-13.2,12.7-13.2c7.3,0,12.7,4.7,12.7,13.2v96c0,8.4-5.4,13.2-12.7,13.2
		c-7.3,0-12.7-4.7-12.7-13.2V442z"/>
</g>
<g id="_x2D_">
	<path class="st1" d="M531.3,479.3c6.2,0.5,9.6,4.7,9.6,10.8c0,5.7-3.4,10-9.6,10.5h-31.2c-6.2-0.5-9.6-4.7-9.6-10.5
		c0-6.1,3.4-10.3,9.6-10.8H531.3z"/>
</g>
<g id="m">
	<path class="st1" d="M582.5,441.8c1-6.1,7.6-13,16.6-13c8.4,0,15,6.1,16.9,12.2l19.9,66.9h0.3l19.9-66.9
		c1.9-6.1,8.4-12.2,16.9-12.2c9,0,15.5,6.9,16.6,13l15.7,94.3c0.2,1,0.2,2,0.2,2.9c0,7.4-5.4,12.2-12.2,12.2
		c-8.6,0-12-3.9-13.2-11.8l-10-68.8h-0.3l-20.3,70.8c-1.2,4.1-4.4,9.8-13.5,9.8s-12.3-5.7-13.5-9.8l-20.3-70.8h-0.3l-10,68.8
		c-1.2,7.9-4.6,11.8-13.2,11.8c-6.8,0-12.2-4.7-12.2-12.2c0-0.8,0-1.9,0.2-2.9L582.5,441.8z"/>
</g>
<g id="e">
	<path class="st1" d="M718.2,444.5c0-8.4,4.2-14.7,13.2-14.7h41.9c8.1,0,12,5.7,12,11.7c0,5.7-4.1,11.7-12,11.7h-29.7v24.7h27.7
		c8.3,0,12.3,5.7,12.3,11.7c0,5.7-4.2,11.7-12.3,11.7h-27.7v25.7h31.3c8.1,0,12,5.7,12,11.7c0,5.7-4.1,11.7-12,11.7h-43.6
		c-7.4,0-13-5.1-13-12.7V444.5z"/>
</g>
<g id="d">
	<path class="st1" d="M794.6,442.8c0-7.8,5.4-13,13-13h28c37.8,0,59.5,24.3,59.5,61.8c0,35.5-23,58.5-57.8,58.5H808
		c-5.6,0-13.3-3-13.3-12.7V442.8z M820,526.8H837c21.8,0,31.8-16,31.8-36.3c0-21.6-10.1-37.3-33.5-37.3H820V526.8z"/>
</g>
<g id="circulo">
	<circle class="st1" cx="332.2" cy="411.8" r="32.3"/>
</g>
<g id="boca">
	<path class="st1" d="M354.7,508.1C339,561.8,289.4,601,230.6,601c-67.4,0-122.8-51.6-128.8-117.4c-0.2-2.4-0.3-4.9-0.4-7.3
		c0-2.6,2.1-4.6,4.6-4.6h27.9c2.6,0,4.6,2.1,4.6,4.6c2.4,48.9,42.6,87.8,92.1,87.8c40.8,0,74.2-29.5,88.5-65.5
		c0.6-1.7,1.9-3,4.1-2.3l26.8,7.2C352.8,504.1,355.4,505.6,354.7,508.1z"/>
</g>
<g id="ojo">
	<g>
		<path class="st1" d="M203.5,415.9V397c0-2.6-2.1-4.6-4.6-4.6l-83.8-4.4c-2.6,0-4.6,2.1-4.6,4.6l-0.1,27.8c0,2.6,2.1,4.6,4.6,4.6
			h0.1l83.8-4.4v0C201.4,420.6,203.5,418.5,203.5,415.9L203.5,415.9z"/>
	</g>
</g>
<g id="Capa_10">
</g>
</svg>
